<svg width="60" height="60" viewBox="0 0 60 60" fill="none" xmlns="http://www.w3.org/2000/svg">
<path d="M16.5266 46.2336V55.9407H28.4415V53.2913H19.173L19.1378 46.2262L16.5266 46.2336ZM52.9989 31.3597V40.6018H40.4884V53.2928H30.8987V55.9421H43.1349V43.2483H55.6468V31.3597H52.9989ZM4.40039 16.0854V28.8028H7.04978V18.7319H30.2737V30.9035L33.8063 41.0404H24.463L20.3774 29.3749H16.864V41.039H7.05125V31.2571H4.40186V43.6869H19.5133V34.9128L22.5882 43.6869H37.5354L32.9246 30.4546V16.0839H4.40039V16.0854ZM16.5339 4.10742V13.5461H19.1833V6.75681H28.9417V4.10742H16.5339ZM31.3989 4.10742V6.75681H40.4796V19.304H52.9975V28.904H55.6468V16.6605H43.1275V4.10742H31.3989Z" fill="white"/>
</svg>
