<svg width="603" height="52" viewBox="0 0 603 52" fill="none" xmlns="http://www.w3.org/2000/svg">
<path d="M0.732422 0.304688H54.1921V27.2769L61.7566 51.9848H37.6532L29.4351 28.1851H25.9554V51.9848H0.732422V0.304688Z" fill="white"/>
<path d="M107.802 0L126.005 51.9828H101.999L91.5598 27.2749V51.9828H66.4941V0H107.802Z" fill="white"/>
<path d="M132.264 0H174.933L187.848 37.8883L201.064 0H225.773V51.9828H200.762V24.4112L191.781 51.9828H165.505L156.071 24.4112V51.9828H132.415L132.264 0Z" fill="white"/>
<path d="M233.291 0H275.955L288.869 37.8883L302.085 0H326.794V51.9828H301.783V24.4112L292.802 51.9828H266.526L257.092 24.4112V51.9828H233.442L233.291 0Z" fill="white"/>
<path d="M391.799 12.7324L403.902 12.8837V0H429.27V12.7324H443.086V38.3423H429.27V51.9768H403.902V38.3484H391.799V12.7324Z" fill="white"/>
<path d="M331.324 0.304688H386.751V20.3326H352.456L386.751 30.8005V51.9848H331.324V30.6552H364.311L331.324 19.8845V0.304688Z" fill="white"/>
<path d="M511.129 0.0175781H534.682V52.0004H511.129V0.0175781Z" fill="white"/>
<path d="M447.287 0H504.312V19.1258H472.837V24.4052H498.811L487.918 28.177H472.831V32.0034H504.306V51.9768H447.215L447.287 0Z" fill="white"/>
<path d="M543.205 0.159172H585.724L597.427 33.6762V0.0078125H602.269V51.9906H577.505L569.13 25.6238H567.163V51.9906H543.211L543.205 0.159172Z" fill="white"/>
</svg>
